<?xml version="1.0" encoding="UTF-8"?>
<svg version="1.1" xmlns="http://www.w3.org/2000/svg" width="313" height="320">
<path d="M0 0 C103.29 0 206.58 0 313 0 C313 105.6 313 211.2 313 320 C209.71 320 106.42 320 0 320 C0 214.4 0 108.8 0 0 Z " fill="#FAFCFC" transform="translate(0,0)"/>
<path d="M0 0 C18.20998155 6.88071221 30.52610587 29.80061461 38.32128906 46.75683594 C51.19214147 75.73262065 50.6833553 106.72034654 39.46875 136.109375 C33.86881864 150.04091156 25.71830822 161.72325635 15.34765625 172.51171875 C13.38249463 174.59459387 11.65423141 176.6687894 10 179 C13.36553082 176.37202168 16.69195643 173.69998069 20 171 C20.82628906 170.32582031 21.65257812 169.65164062 22.50390625 168.95703125 C38.98104621 154.86021648 52.41289331 133.98394296 56.375 112.625 C57.54921569 108.01126757 58.80895859 105.79280591 62.8046875 103.34375 C66.75505375 101.24988824 70.81564399 99.56670074 75 98 C74.50963461 134.50993226 59.95848512 167.59587861 35 194 C34.25363281 194.81082031 33.50726563 195.62164062 32.73828125 196.45703125 C17.88281222 212.0491351 -0.91145248 222.68643896 -21 230 C-21.76054687 230.29390625 -22.52109375 230.5878125 -23.3046875 230.890625 C-28.43466579 232.76695947 -33.742967 233.92376309 -39.0625 235.125 C-39.81893799 235.29596191 -40.57537598 235.46692383 -41.35473633 235.64306641 C-58.11627438 239.30298208 -76.19798762 239.4250256 -93 236 C-94.84851563 235.70802734 -94.84851563 235.70802734 -96.734375 235.41015625 C-117.61862665 232.06805993 -136.92016037 223.40380284 -154 211 C-154.79148438 210.4328125 -155.58296875 209.865625 -156.3984375 209.28125 C-173.532709 196.30246627 -187.03949085 179.95377878 -197 161 C-197.6084375 159.85015625 -198.216875 158.7003125 -198.84375 157.515625 C-208.91163523 137.29153975 -212.42139609 116.38081445 -212 94 C-210.04414675 92.99515796 -208.08523763 91.99626195 -206.125 91 C-205.03445312 90.443125 -203.94390625 89.88625 -202.8203125 89.3125 C-200 88 -200 88 -198 88 C-197.98598145 89.03217651 -197.98598145 89.03217651 -197.97167969 90.08520508 C-197.30783205 129.19689515 -186.04602939 161.61935663 -157.8762207 189.61157227 C-151.49381927 195.72820608 -144.62220924 200.56021054 -137 205 C-136.33242676 205.39413086 -135.66485352 205.78826172 -134.97705078 206.19433594 C-124.50482289 212.29509521 -113.72416241 216.89163259 -102 220 C-100.98873047 220.26852783 -99.97746094 220.53705566 -98.93554688 220.8137207 C-89.49629801 223.08785649 -80.52140499 223.52109895 -70.875 223.4375 C-70.10686981 223.43379395 -69.33873962 223.43008789 -68.54733276 223.42626953 C-38.64742556 223.22128153 -5.76916019 213.76916019 16 192 C15.06800781 192.58007812 14.13601562 193.16015625 13.17578125 193.7578125 C1.86495555 200.72556827 -9.31780491 206.3517207 -22.0625 210.25 C-22.86518311 210.49645264 -23.66786621 210.74290527 -24.49487305 210.99682617 C-35.86362628 214.3213792 -46.92354272 215.32844142 -58.7175293 215.26074219 C-60.93110643 215.25003094 -63.14386934 215.26069481 -65.35742188 215.2734375 C-76.93981121 215.28586937 -88.16357666 214.20268041 -99.3125 210.875 C-100.01834229 210.66544678 -100.72418457 210.45589355 -101.45141602 210.23999023 C-113.05635655 206.59950272 -123.76937252 200.49251359 -134 194 C-133 191 -133 191 -131.34521484 189.90917969 C-129.02918911 188.83779922 -126.70996406 187.77959045 -124.375 186.75 C-123.57964844 186.37359375 -122.78429687 185.9971875 -121.96484375 185.609375 C-115.37152729 182.66457685 -110.94864093 182.86535633 -104.16796875 185.33984375 C-102.18049722 186.12504186 -100.20254076 186.931349 -98.22460938 187.74023438 C-89.03511982 191.36742761 -80.15045036 192.3670718 -70.3125 192.3125 C-68.73094116 192.30512817 -68.73094116 192.30512817 -67.11743164 192.29760742 C-58.73296628 192.17238947 -51.10109827 191.2856341 -43 189 C-41.77410156 188.6596875 -40.54820312 188.319375 -39.28515625 187.96875 C-25.09289564 183.63344645 -13.01244228 177.00464807 -2 167 C-1.06994141 166.19175781 -1.06994141 166.19175781 -0.12109375 165.3671875 C15.77848839 150.68497476 26.71344802 127.34759748 28.22070312 105.85253906 C29.27018687 75.28410165 23.03391643 50.71572144 1.78515625 27.86328125 C0.86403163 26.90184483 -0.05850371 25.94149629 -1 25 C-1.01674294 23.14416777 -0.96275607 21.28760637 -0.87890625 19.43359375 C-0.83056641 18.30888672 -0.78222656 17.18417969 -0.73242188 16.02539062 C-0.67634766 14.84138672 -0.62027344 13.65738281 -0.5625 12.4375 C-0.51029297 11.24962891 -0.45808594 10.06175781 -0.40429688 8.83789062 C-0.2741434 5.89168934 -0.1391636 2.94578724 0 0 Z " fill="#21519D" transform="translate(223,70)"/>
<path d="M0 0 C5.32333786 2.12933514 9.74584787 4.81552713 14.5625 7.875 C15.41263672 8.40480469 16.26277344 8.93460938 17.13867188 9.48046875 C21.15136326 12.01711915 24.85026729 14.38784116 28 18 C19.90018416 24.06659676 11.5552052 29.60460051 3 35 C4.258125 35.15855469 5.51625 35.31710938 6.8125 35.48046875 C28.12283425 38.32212565 46.53007512 44.98908324 65 56 C61.25244814 59.12460788 57.05064165 61.13819419 52.6875 63.25 C51.95337891 63.62640625 51.21925781 64.0028125 50.46289062 64.390625 C42.73650183 68.12013299 36.93486123 66.12712963 29.1875 63.5 C23.06604644 61.52855443 17.46733915 60.12592872 11 60 C10.35305176 59.98098633 9.70610352 59.96197266 9.03955078 59.94238281 C-8.06318683 59.47757239 -26.17482969 60.62081062 -41 70 C-42.093125 70.433125 -43.18625 70.86625 -44.3125 71.3125 C-64.30843699 79.65901834 -79.19883501 99.66599863 -87.8125 118.875 C-97.69967379 144.89749213 -96.6981244 173.04768359 -85.62109375 198.5078125 C-82.18476225 205.91041578 -78.53343215 212.45151866 -72.94140625 218.44311523 C-68.67500919 223.06680794 -66.33266656 226.21458376 -66.25 232.625 C-66.70367265 238.15580328 -67.63974621 243.61971046 -69 249 C-74.11592952 247.50945662 -77.11319529 244.38781235 -80.75 240.6875 C-81.36762207 240.06085449 -81.98524414 239.43420898 -82.62158203 238.78857422 C-104.09256112 216.51054188 -114.59957287 185.79202909 -114.42407227 155.15600586 C-113.5077468 125.39239732 -100.15280421 99.28418971 -80 78 C-79.30648437 77.26523438 -78.61296875 76.53046875 -77.8984375 75.7734375 C-73.88124578 71.63216264 -69.80114006 68.20076004 -65 65 C-87.55595718 77.52542995 -110.95432605 98.76405711 -118.69824219 124.30273438 C-118.90868164 125.09486328 -119.11912109 125.88699219 -119.3359375 126.703125 C-122.76153779 139.57784683 -122.76153779 139.57784683 -127.4140625 142.6953125 C-131.28011281 144.81364179 -135.52711316 147 -140 147 C-140.97974852 113.90191761 -123.88382572 80.09377308 -101.73046875 56.36328125 C-93.21418255 47.48458047 -84.48522204 39.46540284 -74 33 C-73.38479492 32.61553711 -72.76958984 32.23107422 -72.13574219 31.83496094 C-56.77407685 22.36544121 -40.63105184 16.5840171 -23 13 C-22.20851563 12.80277344 -21.41703125 12.60554688 -20.6015625 12.40234375 C-16.63442839 11.78880799 -12.69444874 11.89638687 -8.6875 11.9375 C-7.85154297 11.94201172 -7.01558594 11.94652344 -6.15429688 11.95117188 C-4.10283351 11.96289452 -2.05140727 11.98082797 0 12 C0 8.04 0 4.08 0 0 Z " fill="#143273" transform="translate(151,8)"/>
<path d="M0 0 C-0.99 0.66 -1.98 1.32 -3 2 C-3.5775 2.391875 -4.155 2.78375 -4.75 3.1875 C-10.23625508 5.16864767 -16.51310328 2.29702504 -21.8125 0.5 C-27.93395356 -1.47144557 -33.53266085 -2.87407128 -40 -3 C-40.64694824 -3.01901367 -41.29389648 -3.03802734 -41.96044922 -3.05761719 C-59.06318683 -3.52242761 -77.17482969 -2.37918938 -92 7 C-93.093125 7.433125 -94.18625 7.86625 -95.3125 8.3125 C-115.30843699 16.65901834 -130.19883501 36.66599863 -138.8125 55.875 C-148.69967379 81.89749213 -147.6981244 110.04768359 -136.62109375 135.5078125 C-133.18476225 142.91041578 -129.53343215 149.45151866 -123.94140625 155.44311523 C-119.67500919 160.06680794 -117.33266656 163.21458376 -117.25 169.625 C-117.70367265 175.15580328 -118.63974621 180.61971046 -120 186 C-125.11592952 184.50945662 -128.11319529 181.38781235 -131.75 177.6875 C-132.36762207 177.06085449 -132.98524414 176.43420898 -133.62158203 175.78857422 C-155.09256112 153.51054188 -165.59957287 122.79202909 -165.42407227 92.15600586 C-164.5077468 62.39239732 -151.15280421 36.28418971 -131 15 C-130.30648437 14.26523438 -129.61296875 13.53046875 -128.8984375 12.7734375 C-124.8704069 8.62098897 -120.76491285 5.27003823 -116 2 C-115.51724609 1.49839355 -115.03449219 0.99678711 -114.53710938 0.47998047 C-111.72892156 -2.22383696 -108.05771067 -3.39087362 -104.5 -4.875 C-103.66428467 -5.22506104 -102.82856934 -5.57512207 -101.9675293 -5.93579102 C-67.83878971 -19.78952651 -32.31937518 -17.56081657 0 0 Z " fill="#1890C9" transform="translate(202,71)"/>
<path d="M0 0 C18.20998155 6.88071221 30.52610587 29.80061461 38.32128906 46.75683594 C51.19214147 75.73262065 50.6833553 106.72034654 39.46875 136.109375 C33.88920513 149.99019395 25.7767106 161.66097468 15.4453125 172.4140625 C12.98887748 174.92793663 12.98887748 174.92793663 10.9921875 177.5859375 C7.19980582 182.18141177 2.63455334 184.93166748 -2.5625 187.75 C-3.67753906 188.36359375 -4.79257813 188.9771875 -5.94140625 189.609375 C-9 191 -9 191 -13 191 C-13 191.66 -13 192.32 -13 193 C-45.56920825 204.54936463 -77.69213898 207.87830648 -110 193 C-113.21658671 191.26768892 -116.36388948 189.55694804 -119 187 C-119 186.34 -119 185.68 -119 185 C-116.36620964 183.20902256 -115.06051278 182.99506933 -111.8359375 183.2578125 C-107.01066559 184.19141908 -102.7563207 185.88696736 -98.22460938 187.74023438 C-89.03511982 191.36742761 -80.15045036 192.3670718 -70.3125 192.3125 C-69.25812744 192.30758545 -68.20375488 192.3026709 -67.11743164 192.29760742 C-58.73296628 192.17238947 -51.10109827 191.2856341 -43 189 C-41.77410156 188.6596875 -40.54820312 188.319375 -39.28515625 187.96875 C-25.09289564 183.63344645 -13.01244228 177.00464807 -2 167 C-1.37996094 166.46117187 -0.75992188 165.92234375 -0.12109375 165.3671875 C15.77848839 150.68497476 26.71344802 127.34759748 28.22070312 105.85253906 C29.27018687 75.28410165 23.03391643 50.71572144 1.78515625 27.86328125 C0.86403163 26.90184483 -0.05850371 25.94149629 -1 25 C-1.01674294 23.14416777 -0.96275607 21.28760637 -0.87890625 19.43359375 C-0.83056641 18.30888672 -0.78222656 17.18417969 -0.73242188 16.02539062 C-0.67634766 14.84138672 -0.62027344 13.65738281 -0.5625 12.4375 C-0.51029297 11.24962891 -0.45808594 10.06175781 -0.40429688 8.83789062 C-0.2741434 5.89168934 -0.1391636 2.94578724 0 0 Z " fill="#1889C3" transform="translate(223,70)"/>
<path d="M0 0 C-0.33331484 10.34425366 -0.89446222 20.0388411 -4 30 C-4.99 28.515 -4.99 28.515 -6 27 C-6.226875 27.95648438 -6.45375 28.91296875 -6.6875 29.8984375 C-8.10407536 34.82920943 -10.51734803 39.15861239 -13 43.625 C-13.49201904 44.51018311 -13.98403809 45.39536621 -14.4909668 46.30737305 C-20.51619312 56.92914384 -27.89560108 65.96127187 -36.125 74.9375 C-36.68678955 75.55278564 -37.2485791 76.16807129 -37.82739258 76.80200195 C-41.86445421 81.09713523 -46.1982495 84.59504777 -51 88 C-51.61359375 88.44674072 -52.2271875 88.89348145 -52.859375 89.35375977 C-77.28189632 107.05289694 -103.21203718 117.43584822 -133.7175293 117.26074219 C-135.93110643 117.25003094 -138.14386934 117.26069481 -140.35742188 117.2734375 C-151.93981121 117.28586937 -163.16357666 116.20268041 -174.3125 112.875 C-175.01834229 112.66544678 -175.72418457 112.45589355 -176.45141602 112.23999023 C-188.05635655 108.59950272 -198.76937252 102.49251359 -209 96 C-208 93 -208 93 -205.63671875 91.578125 C-204.66347656 91.13984375 -203.69023437 90.7015625 -202.6875 90.25 C-201.72199219 89.80140625 -200.75648438 89.3528125 -199.76171875 88.890625 C-196.79484129 87.93383849 -195.82107096 87.82502678 -193 89 C-191.39708518 89.86030568 -189.81570697 90.76120442 -188.25 91.6875 C-161.05712648 106.65077432 -131.02368421 107.10374248 -101.62158203 98.81005859 C-99.19258033 98.05950657 -96.83478663 97.21885751 -94.46484375 96.30078125 C-91 95 -91 95 -88 95 C-88 94.34 -88 93.68 -88 93 C-86.99453125 92.57976562 -85.9890625 92.15953125 -84.953125 91.7265625 C-73.74838309 86.91246484 -64.12691206 81.13150383 -55 73 C-54.17113281 72.31421875 -53.34226563 71.6284375 -52.48828125 70.921875 C-35.93800245 56.89181134 -22.67256694 35.92468391 -18.5625 14.625 C-17.41842563 10.16913141 -16.24806131 7.84294817 -12.453125 5.34375 C-3.05708755 0 -3.05708755 0 0 0 Z " fill="#0C2966" transform="translate(298,168)"/>
<path d="M0 0 C0.99 0.33 1.98 0.66 3 1 C2.67 1.66 2.34 2.32 2 3 C3.258125 3.15855469 4.51625 3.31710938 5.8125 3.48046875 C27.12283425 6.32212565 45.53007512 12.98908324 64 24 C59.30010995 27.6265227 54.82766508 30.89124365 48.75 31.125 C44.23307509 29.76992253 40.33048719 27.71283166 36.1484375 25.5546875 C11.85980505 13.56104517 -17.80912854 14.53000712 -43.0625 22.6875 C-75.24718388 33.6461313 -101.68390806 55.72018749 -117.2265625 85.984375 C-118.58602533 88.84082271 -119.52401338 91.64690832 -120.3359375 94.703125 C-123.76153779 107.57784683 -123.76153779 107.57784683 -128.4140625 110.6953125 C-132.28011281 112.81364179 -136.52711316 115 -141 115 C-141.6933627 107.89688435 -140.52948678 103.04908753 -137.34375 96.6953125 C-136.13981717 94.28044722 -135.17632269 91.90523326 -134.25 89.375 C-120.50853114 54.71780144 -92.03179109 28.40365045 -58.33984375 13.375 C-39.09393808 5.45153942 -21.63043702 3.50019441 -1 4 C-0.67 2.68 -0.34 1.36 0 0 Z " fill="#0D2963" transform="translate(152,40)"/>
<path d="M0 0 C6.40776051 0.52293218 11.69515533 2.122927 17.625 4.5625 C18.50091797 4.91965088 19.37683594 5.27680176 20.27929688 5.64477539 C57.11833704 21.0247373 83.92438952 51.58190501 99 88 C100.64322193 92.25643766 101.90050107 96.57260593 103 101 C103.27199219 101.98097656 103.54398437 102.96195312 103.82421875 103.97265625 C106.37974299 113.83324002 107.14238906 123.88019086 108 134 C105.87767021 135.17176518 103.75242209 136.33754785 101.625 137.5 C101.02171875 137.83386719 100.4184375 138.16773438 99.796875 138.51171875 C95.2265625 141 95.2265625 141 93 141 C92.97421875 139.69289062 92.9484375 138.38578125 92.921875 137.0390625 C91.86377944 99.48197812 76.86942366 67.45410339 49.82421875 41.48046875 C44.29966111 36.34683255 38.39962242 31.97722699 32 28 C31.42878418 27.64357422 30.85756836 27.28714844 30.26904297 26.91992188 C17.52317161 19.15876892 3.28503638 14.99825747 -11 11 C-8.7307574 8.55620028 -6.63004918 6.76062006 -3.8125 4.9375 C-0.74597387 3.24100533 -0.74597387 3.24100533 0 0 Z " fill="#18ADDE" transform="translate(190,25)"/>
<path d="M0 0 C0.25007812 0.57878906 0.50015625 1.15757813 0.7578125 1.75390625 C2.16519751 4.29870619 3.77282931 5.93448831 5.875 7.9375 C8.81915952 10.8120703 11.61812616 13.62567873 14 17 C14 17.66 14 18.32 14 19 C14.66 19 15.32 19 16 19 C16.66 20.98 17.32 22.96 18 25 C18.66 25 19.32 25 20 25 C23.71160609 32.20051582 27.24427575 39.37541765 30 47 C30.27714844 47.76441406 30.55429688 48.52882812 30.83984375 49.31640625 C38.93117497 73.75142143 36.27996237 102.02283066 25.04785156 124.99609375 C18.46104863 137.59266376 9.30732703 149.33172596 -2 158 C-2.66 157.67 -3.32 157.34 -4 157 C-3.46632812 156.51273438 -2.93265625 156.02546875 -2.3828125 155.5234375 C15.28834203 138.70832506 27.4902526 115.1284583 28.3359375 90.49609375 C28.7285704 60.02091485 21.48549222 36.42577634 0 14 C-0.33 13.67 -0.66 13.34 -1 13 C-1.09886353 11.37747508 -1.12971167 9.75052727 -1.125 8.125 C-1.12886719 6.79855469 -1.12886719 6.79855469 -1.1328125 5.4453125 C-1 3 -1 3 0 0 Z " fill="#0D3272" transform="translate(223,82)"/>
<path d="M0 0 C0.66 0.33 1.32 0.66 2 1 C1.5153125 1.55945313 1.030625 2.11890625 0.53125 2.6953125 C-7.4479058 12.2396104 -14.21321282 23.08176355 -18 35 C-18.37125 36.12535156 -18.7425 37.25070313 -19.125 38.41015625 C-26.80056089 64.21512955 -22.23713498 91.52573005 -10.41015625 115.1796875 C-7.66669117 120.1502007 -4.70444976 124.42230357 -0.89111328 128.59790039 C4.84647509 134.89635867 4.84647509 134.89635867 5.4140625 138.9765625 C5.15696849 141.44327533 4.76117071 143.64349891 4 146 C-3.5404126 138.69522529 -10.00610033 131.2797091 -15 122 C-15.32000977 121.41299316 -15.64001953 120.82598633 -15.96972656 120.22119141 C-28.78235822 96.5184255 -33.28147125 69.3778565 -25.69775391 43.20556641 C-20.49382279 26.75619143 -12.44726447 12.11533741 0 0 Z " fill="#10326F" transform="translate(79,98)"/>
<path d="M0 0 C10.15581062 4.08092464 20.85462664 5.88391749 31.59033203 7.79638672 C33.44028848 8.12746157 35.28467795 8.49008958 37.125 8.87109375 C51.86459721 10.73273558 66.72084719 9.53605377 81.125 6.25 C83.4552269 5.89560167 85.78795821 5.55625357 88.125 5.25 C68.10787021 18.5947532 37.40419776 18.73967742 14.7734375 14.359375 C3.93812095 11.95152688 -9.71220038 8.16767051 -17.875 0.25 C-17.875 -0.41 -17.875 -1.07 -17.875 -1.75 C-12.13331694 -5.65434448 -5.77357722 -2.45092775 0 0 Z " fill="#1164A6" transform="translate(121.875,256.75)"/>
<path d="M0 0 C0 3.63 0 7.26 0 11 C-2.26810547 11.03867187 -2.26810547 11.03867187 -4.58203125 11.078125 C-34.01674348 11.79534039 -61.05625074 19.29839549 -85 37 C-85.66 36.67 -86.32 36.34 -87 36 C-64.54277383 14.04691564 -31.90682388 -1.54387858 0 0 Z " fill="#EEF1F5" transform="translate(151,33)"/>
<path d="M0 0 C-0.99 0.66 -1.98 1.32 -3 2 C-3.5775 2.391875 -4.155 2.78375 -4.75 3.1875 C-11.42360027 5.59741121 -20.30505191 1.16768971 -26.6875 -0.8125 C-48.51531424 -7.39626138 -67.4363432 -11.31346581 -90.0625 -6.75390625 C-94.02343891 -5.95793286 -97.98698209 -5.46131791 -102 -5 C-72.77699736 -24.48200176 -28.5143798 -15.49336243 0 0 Z " fill="#1568A4" transform="translate(202,71)"/>
<path d="M0 0 C0.20752677 7.94654605 -0.60399692 15.67202242 -1.5 23.5625 C-1.64308594 24.85736328 -1.78617188 26.15222656 -1.93359375 27.48632812 C-2.28470837 30.6580635 -2.64028681 33.82923028 -3 37 C-6.77488454 35.26959767 -8.67188751 33.28470629 -11.25 30 C-11.95640625 29.113125 -12.6628125 28.22625 -13.390625 27.3125 C-15 25 -15 25 -15 23 C-15.85851562 22.88785156 -16.71703125 22.77570313 -17.6015625 22.66015625 C-21.1363256 21.97351836 -24.07603124 20.86705313 -27.375 19.4375 C-28.43460938 18.98246094 -29.49421875 18.52742188 -30.5859375 18.05859375 C-31.38257813 17.70925781 -32.17921875 17.35992187 -33 17 C-32 14 -32 14 -29.57910156 12.58959961 C-28.5269043 12.11530518 -27.47470703 11.64101074 -26.390625 11.15234375 C-25.24335938 10.62962891 -24.09609375 10.10691406 -22.9140625 9.56835938 C-21.69277052 9.02459989 -20.47141575 8.48098141 -19.25 7.9375 C-18.05632812 7.39544922 -16.86265625 6.85339844 -15.6328125 6.29492188 C-1.72017923 0 -1.72017923 0 0 0 Z " fill="#15AFE1" transform="translate(215,74)"/>
<path d="M0 0 C3.99309687 1.52545274 5.69304774 3.98545285 8.1875 7.375 C12.34734358 12.59867243 15.7141252 15.00799742 22 17 C23.5226393 17.57860294 25.04358562 18.16168809 26.5625 18.75 C27.696875 19.1625 28.83125 19.575 30 20 C30 20.66 30 21.32 30 22 C26.10472145 23.81649861 22.2086213 25.63121984 18.31176758 27.44433594 C16.98764992 28.06071602 15.66375353 28.67757169 14.34008789 29.29492188 C12.43174008 30.18486218 10.52258937 31.0730597 8.61328125 31.9609375 C7.46641846 32.49509277 6.31955566 33.02924805 5.13793945 33.57958984 C2.44863918 34.79692035 -0.24871382 35.93193313 -3 37 C-2.51188749 24.57882122 -1.64418311 12.32339184 0 0 Z " fill="#13AFDF" transform="translate(93,216)"/>
<path d="M0 0 C3.63467079 1.62400184 4.77408696 2.66113044 7 6 C7.69920885 10.79689791 7.71482085 14.77459282 5.25 19 C1.89896183 21.97870059 0.12839194 22.87462312 -4.375 23.375 C-8.7179218 22.92573223 -10.70673134 21.8337428 -14 19 C-16.10863429 15.35781349 -16.50962203 12.16191328 -16 8 C-11.88637587 0.62384639 -8.07090556 -0.93616831 0 0 Z " fill="#148AC5" transform="translate(158,154)"/>
<path d="M0 0 C10.85136098 6.17604056 17.87059238 15.69064937 21.48046875 27.5546875 C22.15524404 30.68056962 22.14085728 33.48594435 21.9375 36.671875 C20.2875 36.671875 18.6375 36.671875 16.9375 36.671875 C16.92332031 35.99382812 16.90914062 35.31578125 16.89453125 34.6171875 C16.40618006 25.08773988 13.28571573 17.82076659 6.9375 10.671875 C4.37220616 8.67843062 4.37220616 8.67843062 1.5625 6.984375 C0.64726562 6.40300781 -0.26796875 5.82164062 -1.2109375 5.22265625 C-7.72228876 1.68155152 -13.18232994 1.41232834 -20.4375 1.546875 C-21.36433594 1.55589844 -22.29117188 1.56492188 -23.24609375 1.57421875 C-25.51850077 1.59764563 -27.7903618 1.63044752 -30.0625 1.671875 C-30.0625 0.351875 -30.0625 -0.968125 -30.0625 -2.328125 C-20.62136213 -5.47517096 -8.90713154 -3.96367354 0 0 Z " fill="#16B1DE" transform="translate(172.0625,128.328125)"/>
<path d="M0 0 C1.32 0 2.64 0 4 0 C4.14695312 0.89460937 4.29390625 1.78921875 4.4453125 2.7109375 C6.56920139 14.16040752 9.85072811 22.667193 19.59765625 29.52734375 C29.49247516 35.59294819 39.65245668 36.61866384 51 34 C51.495 35.98 51.495 35.98 52 38 C43.1934627 41.35294769 33.52796699 41.37910469 24.6875 38.0625 C13.8605853 32.88947884 5.83589803 23.96314979 1.125 13 C-0.35833087 8.69747302 -0.2812498 4.49999686 0 0 Z " fill="#17B6E2" transform="translate(114,166)"/>
<path d="M0 0 C0.66 0 1.32 0 2 0 C2.44988281 0.99257812 2.89976563 1.98515625 3.36328125 3.0078125 C8.18154281 13.29772398 13.89910616 22.89910616 22 31 C21.91036938 32.69141656 21.75422324 34.37959602 21.5625 36.0625 C21.46066406 36.98160156 21.35882813 37.90070313 21.25390625 38.84765625 C21.17011719 39.55792969 21.08632812 40.26820313 21 41 C13.45337465 33.6892067 7.04650991 26.25900278 2 17 C1.48824219 16.10410156 0.97648437 15.20820313 0.44921875 14.28515625 C-0.02902344 13.40730469 -0.50726563 12.52945313 -1 11.625 C-1.433125 10.83351562 -1.86625 10.04203125 -2.3125 9.2265625 C-3 7 -3 7 -2.1875 4.8984375 C-1.795625 4.27195313 -1.40375 3.64546875 -1 3 C-0.67 2.01 -0.34 1.02 0 0 Z " fill="#0C2B6C" transform="translate(62,203)"/>
<path d="M0 0 C0.33 0 0.66 0 1 0 C1 1.65 1 3.3 1 5 C4.465 4.505 4.465 4.505 8 4 C-0.21273238 21.15145216 -14.00346677 33.84404236 -29 45 C-29.66 44.67 -30.32 44.34 -31 44 C-30.24976563 43.29617187 -29.49953125 42.59234375 -28.7265625 41.8671875 C-16.40918649 30.08429329 -8.19052043 17.39484791 -1 2 C-0.67 1.34 -0.34 0.68 0 0 Z " fill="#EDF3F5" transform="translate(262,205)"/>
<path d="M0 0 C1.32 0 2.64 0 4 0 C4.2475 1.175625 4.495 2.35125 4.75 3.5625 C6.51724323 10.42569801 9.50241692 15.68589458 15.296875 19.84375 C21.12832474 22.33812735 27.74396866 21.98481546 34 22 C33.625 23.9375 33.625 23.9375 33 26 C29.18352338 27.90823831 25.14959094 27.57540994 21 27 C11.64467182 23.71742871 5.75799359 19.14825471 1.125 10.5 C-0.0658704 6.79506987 -0.23671035 3.866269 0 0 Z " fill="#5B72A5" transform="translate(127,166)"/>
<path d="M0 0 C0.66 0.33 1.32 0.66 2 1 C1.33355469 1.52207031 0.66710937 2.04414062 -0.01953125 2.58203125 C-11.90740391 12.07570298 -21.55028735 22.32543103 -30 35 C-33.96 34.505 -33.96 34.505 -38 34 C-28.59294055 20.41202524 -16.62612413 11.06593274 -3 2 C-2.01 1.34 -1.02 0.68 0 0 Z " fill="#EEF8F8" transform="translate(85,72)"/>
<path d="M0 0 C10.31422669 -0.58199398 17.64553857 0.4640349 26.3125 6.1875 C31.93767145 12.07430733 34.55845209 17.90495496 35 26 C33.68 26 32.36 26 31 26 C30.77957031 25.03900391 30.77957031 25.03900391 30.5546875 24.05859375 C28.52286992 16.22325123 25.47570802 10.82403102 18.4375 6.5625 C12.93645335 4.04252736 6.90866108 4.67574421 1 5 C0.67 3.35 0.34 1.7 0 0 Z " fill="#4A6498" transform="translate(146,138)"/>
<path d="M0 0 C1.625 1.5625 1.625 1.5625 3 4 C1.90506806 9.50824655 -0.28860239 13.58788416 -3.4375 18.1875 C-3.87344482 18.83243408 -4.30938965 19.47736816 -4.75854492 20.1418457 C-10.4545784 28.36157922 -17.04163326 35.89906176 -25 42 C-25.66 41.67 -26.32 41.34 -27 41 C-26.19949219 40.26910156 -26.19949219 40.26910156 -25.3828125 39.5234375 C-13.83914392 28.53897778 -4.84543226 15.25413858 0 0 Z " fill="#104B93" transform="translate(246,198)"/>
<path d="M0 0 C-0.969375 0.556875 -1.93875 1.11375 -2.9375 1.6875 C-3.58509277 2.06350342 -4.23268555 2.43950684 -4.89990234 2.8269043 C-6.23179037 3.57088499 -7.58541511 4.27814861 -8.96337891 4.93286133 C-15.72292356 8.26811066 -20.74907123 13.16952856 -25.96850586 18.50195312 C-27.44704207 20.00973078 -28.94368831 21.49764687 -30.44335938 22.984375 C-36.29745327 28.75573488 -36.29745327 28.75573488 -40 36 C-40.97169321 37.43047674 -41.99282972 38.82872964 -43.0625 40.1875 C-45.23768249 42.96309907 -45.23768249 42.96309907 -47 46 C-47.66 46 -48.32 46 -49 46 C-44.63681206 34.36483215 -36.49226128 25.75641098 -28 17 C-27.31292969 16.27296875 -26.62585938 15.5459375 -25.91796875 14.796875 C-22.23996509 10.97772898 -18.35734309 8.01662214 -14 5 C-13.50886719 4.4946875 -13.01773438 3.989375 -12.51171875 3.46875 C-9.13951674 0.1923987 -4.50256333 -1.98112787 0 0 Z " fill="#12BDEA" transform="translate(100,68)"/>
<path d="M0 0 C1.76953125 0.07421875 1.76953125 0.07421875 4 1 C5.42448998 3.27977382 6.57038936 5.39087672 7.6875 7.8125 C7.99494141 8.44220703 8.30238281 9.07191406 8.61914062 9.72070312 C11.40787469 15.53615949 12.12380228 19.56228166 12 26 C10.35 26 8.7 26 7 26 C6.98582031 25.32195312 6.97164062 24.64390625 6.95703125 23.9453125 C6.5130386 15.28145602 3.76686634 9.15029952 -1 2 C-0.67 1.34 -0.34 0.68 0 0 Z " fill="#16B1DF" transform="translate(182,139)"/>
<path d="M0 0 C0.66 0.33 1.32 0.66 2 1 C2.625 3.0625 2.625 3.0625 3 5 C2.46109131 5.27674561 1.92218262 5.55349121 1.36694336 5.83862305 C-1.11248415 7.11595222 -3.58747833 8.40165602 -6.0625 9.6875 C-6.91005859 10.12255859 -7.75761719 10.55761719 -8.63085938 11.00585938 C-13.73999958 13.66892473 -18.39643749 16.53327382 -23 20 C-23.66 19.67 -24.32 19.34 -25 19 C-19.17610249 13.30684304 -13.27957378 8.24144955 -6.4375 3.8125 C-5.83019043 3.41426025 -5.22288086 3.01602051 -4.59716797 2.60571289 C-3.10635292 1.66757482 -1.55683281 0.82395641 0 0 Z " fill="#ECEFF4" transform="translate(89,50)"/>
<path d="M0 0 C0.66 0.66 1.32 1.32 2 2 C1.154375 2.37125 0.30875 2.7425 -0.5625 3.125 C-4.020866 5.01138145 -6.47754658 7.08044987 -9.2890625 9.79296875 C-11 11 -11 11 -15 11 C-14.7716978 7.04276182 -14.54977482 4.67003806 -12 1.5625 C-8.02309327 -0.50880559 -4.41582439 -0.74609214 0 0 Z " fill="#1665A5" transform="translate(158,154)"/>
<path d="M0 0 C6.09098085 -0.20907257 11.45034367 0.49876187 17.375 1.875 C18.18066406 2.04902344 18.98632812 2.22304687 19.81640625 2.40234375 C25.74239042 3.74239042 25.74239042 3.74239042 28 6 C27.3608667 5.99476318 26.7217334 5.98952637 26.06323242 5.98413086 C23.10466537 5.9630573 20.14611421 5.9502448 17.1875 5.9375 C16.18267578 5.92912109 15.17785156 5.92074219 14.14257812 5.91210938 C7.37131176 5.89033681 0.73089074 6.2630169 -6 7 C-6 6.34 -6 5.68 -6 5 C-3.03 4.34 -0.06 3.68 3 3 C2.01 2.01 1.02 1.02 0 0 Z " fill="#16C6F3" transform="translate(139,62)"/>
<path d="M0 0 C0 0.99 0 1.98 0 3 C-4.70924974 4.84719408 -8.64308449 5.24271251 -13.6875 5.1875 C-14.99074219 5.18105469 -16.29398438 5.17460937 -17.63671875 5.16796875 C-21 5 -21 5 -24 4 C-24 3.34 -24 2.68 -24 2 C-23.34 2 -22.68 2 -22 2 C-22 1.34 -22 0.68 -22 0 C-20.31970703 0.01740234 -20.31970703 0.01740234 -18.60546875 0.03515625 C-17.13281417 0.04453622 -15.66015778 0.0536362 -14.1875 0.0625 C-13.44951172 0.07087891 -12.71152344 0.07925781 -11.95117188 0.08789062 C-7.71494132 0.10705909 -3.90724173 -1.30241391 0 0 Z " fill="#17BDE9" transform="translate(166,201)"/>
<path d="M0 0 C0.66 0.33 1.32 0.66 2 1 C1.5153125 1.55945313 1.030625 2.11890625 0.53125 2.6953125 C-7.01579663 11.72274136 -13.39387192 21.73084974 -17 33 C-17.66 32.67 -18.32 32.34 -19 32 C-19.71617829 21.91382245 -11.97967205 13.59226727 -5.89453125 6.15625 C-4.00983708 4.01119602 -2.04337973 1.9935412 0 0 Z " fill="#133672" transform="translate(79,98)"/>
<path d="M0 0 C1.32 0 2.64 0 4 0 C4.268125 1.19625 4.53625 2.3925 4.8125 3.625 C5.50658237 6.46125027 6.255841 8.49200192 7.625 11.125 C9.16097077 14.33657525 9.25105183 16.48527443 9 20 C4.4204808 15.92931627 0.50258051 11.22805828 -0.24609375 4.9296875 C-0.25 3 -0.25 3 0 0 Z " fill="#4F659D" transform="translate(127,166)"/>
<path d="M0 0 C0.66 0.33 1.32 0.66 2 1 C-1.22518228 8.85804081 -10.15183992 14.3849356 -17 19 C-17.66 18.67 -18.32 18.34 -19 18 C-13.66666667 12.66666667 -8.33333333 7.33333333 -3 2 C-2.34 2.33 -1.68 2.66 -1 3 C-0.67 2.01 -0.34 1.02 0 0 Z " fill="#E4EDF1" transform="translate(250,231)"/>
<path d="M0 0 C0 3 0 3 -2.01953125 5.36010742 C-3.40205078 6.71906128 -3.40205078 6.71906128 -4.8125 8.10546875 C-5.30081299 8.5895369 -5.78912598 9.07360504 -6.29223633 9.57234192 C-7.85459826 11.1179014 -9.42706327 12.65271107 -11 14.1875 C-12.06057762 15.23303282 -13.12048229 16.27924873 -14.1796875 17.32617188 C-16.77869434 19.89208902 -19.3868639 22.44846467 -22 25 C-22.66 24.67 -23.32 24.34 -24 24 C-18.86726093 18.124539 -13.5687465 12.46215434 -8.0625 6.9375 C-7.4950708 6.36555908 -6.9276416 5.79361816 -6.34301758 5.2043457 C-2.24772585 1.12386292 -2.24772585 1.12386292 0 0 Z " fill="#173A84" transform="translate(65,50)"/>
<path d="M0 0 C-0.33 0.99 -0.66 1.98 -1 3 C0.32 3.33 1.64 3.66 3 4 C-15.34042553 4.38297872 -15.34042553 4.38297872 -24 2 C-24 1.67 -24 1.34 -24 1 C-20.93758173 0.83170223 -17.87508013 0.66530338 -14.8125 0.5 C-13.94818359 0.45230469 -13.08386719 0.40460938 -12.19335938 0.35546875 C-8.12442913 0.13721196 -4.07665227 -0.06752219 0 0 Z " fill="#18C8F3" transform="translate(170,262)"/>
<path d="M0 0 C1.625 1.5625 1.625 1.5625 3 4 C2.13308079 10.31612566 -1.33048055 14.91113812 -5 20 C-5.66 19.67 -6.32 19.34 -7 19 C-6.57847656 17.87980469 -6.15695313 16.75960937 -5.72265625 15.60546875 C-5.16924176 14.13282342 -4.61585795 12.66016657 -4.0625 11.1875 C-3.78470703 10.44951172 -3.50691406 9.71152344 -3.22070312 8.95117188 C-2.95322266 8.23896484 -2.68574219 7.52675781 -2.41015625 6.79296875 C-2.04096069 5.81106567 -2.04096069 5.81106567 -1.66430664 4.80932617 C-1.07962967 3.21688185 -0.53644441 1.60933324 0 0 Z " fill="#1B468B" transform="translate(246,198)"/>
<path d="M0 0 C2.3125 0.125 2.3125 0.125 5 1 C6.6875 4 6.6875 4 8 7 C8.66 7.33 9.32 7.66 10 8 C10 6.02 10 4.04 10 2 C10.33 2 10.66 2 11 2 C11 5.96 11 9.92 11 14 C7.08698569 12.04349285 5.82179235 10.90912723 3.25 7.5625 C2.63640625 6.78003906 2.0228125 5.99757813 1.390625 5.19140625 C0 3 0 3 0 0 Z " fill="#1483B9" transform="translate(201,97)"/>
<path d="M0 0 C0.66 0.33 1.32 0.66 2 1 C-5.01146634 7.80742896 -12.71900544 12.91125228 -21 18 C-21.33 16.68 -21.66 15.36 -22 14 C-20.91460937 13.40832031 -19.82921875 12.81664062 -18.7109375 12.20703125 C-17.26543895 11.40919114 -15.82013685 10.61099506 -14.375 9.8125 C-13.66214844 9.42513672 -12.94929687 9.03777344 -12.21484375 8.63867188 C-7.70494131 6.13546915 -3.85836995 3.4262812 0 0 Z " fill="#D6E0EC" transform="translate(242,258)"/>
<path d="M0 0 C0.66 0.33 1.32 0.66 2 1 C1.27554688 1.59167969 0.55109375 2.18335937 -0.1953125 2.79296875 C-1.16210938 3.58316406 -2.12890625 4.37335938 -3.125 5.1875 C-4.13175781 6.00605469 -5.13851562 6.82460937 -6.17578125 7.66796875 C-8.27611846 9.40227209 -10.29883087 11.16988248 -12.3125 13 C-15.29454528 15.21919649 -17.32706014 15.73764715 -21 16 C-17.41172141 12.2034131 -13.70757308 9.21571963 -9.375 6.3125 C-8.80265625 5.92255859 -8.2303125 5.53261719 -7.640625 5.13085938 C-5.10389454 3.40529273 -2.55271471 1.70180981 0 0 Z " fill="#DAEDF1" transform="translate(85,72)"/>
<path d="M0 0 C3 1 3 1 3.94921875 2.70703125 C4.19285156 3.40183594 4.43648437 4.09664062 4.6875 4.8125 C4.93886719 5.49957031 5.19023437 6.18664062 5.44921875 6.89453125 C6 9 6 9 6 13 C4.68 13 3.36 13 2 13 C1.47212358 11.02270019 0.95287097 9.04309608 0.4375 7.0625 C0.00244141 5.40927734 0.00244141 5.40927734 -0.44140625 3.72265625 C-0.62574219 2.82417969 -0.81007812 1.92570313 -1 1 C-0.67 0.67 -0.34 0.34 0 0 Z " fill="#436096" transform="translate(175,151)"/>
<path d="M0 0 C2.912575 0.08566397 4.56798024 0.57910955 6.66796875 2.625 C8.16091772 4.38391375 9.60436262 6.16313019 11 8 C10.34 8 9.68 8 9 8 C8.67 8.66 8.34 9.32 8 10 C5.03 7.69 2.06 5.38 -1 3 C-0.67 2.01 -0.34 1.02 0 0 Z " fill="#11A8D7" transform="translate(173,131)"/>
<path d="M0 0 C0.99 0.66 1.98 1.32 3 2 C3.94349555 6.80247736 3.63943178 10.89753141 1.1875 15.125 C-1 17 -1 17 -4 17 C-3.03005479 14.31399787 -2.27487237 12.29523328 -0.3125 10.1875 C1.77186501 6.71355832 0.71658241 3.90863132 0 0 Z " fill="#1970B2" transform="translate(162,158)"/>
<path d="M0 0 C0 0.66 0 1.32 0 2 C-2.74755487 2.69888677 -5.49731197 3.3843988 -8.25 4.0625 C-9.02730469 4.26166016 -9.80460937 4.46082031 -10.60546875 4.66601562 C-11.35957031 4.84970703 -12.11367187 5.03339844 -12.890625 5.22265625 C-13.58188477 5.39547119 -14.27314453 5.56828613 -14.98535156 5.74633789 C-17.25070809 6.03156637 -18.8368312 5.68076195 -21 5 C-18.06746654 3.96448955 -15.12833062 2.94918162 -12.1875 1.9375 C-11.35412109 1.64294922 -10.52074219 1.34839844 -9.66210938 1.04492188 C-8.45844727 0.6340332 -8.45844727 0.6340332 -7.23046875 0.21484375 C-6.49207764 -0.04176025 -5.75368652 -0.29836426 -4.99291992 -0.56274414 C-3 -1 -3 -1 0 0 Z " fill="#106198" transform="translate(121,60)"/>
<path d="M0 0 C2.64 0.33 5.28 0.66 8 1 C8 1.33 8 1.66 8 2 C7.13375 2.2475 6.2675 2.495 5.375 2.75 C1.75334802 4.09135258 -0.97169247 5.60552428 -4 8 C-4.95231597 10.12119128 -4.95231597 10.12119128 -5 12 C-7.97 11.505 -7.97 11.505 -11 11 C-8.7307574 8.55620028 -6.63004918 6.76062006 -3.8125 4.9375 C-0.74597387 3.24100533 -0.74597387 3.24100533 0 0 Z " fill="#22C3E4" transform="translate(190,25)"/>
<path d="M0 0 C2.32590854 3.63423209 2.16265833 6.77088331 2 11 C0.35 11 -1.3 11 -3 11 C-3 8.36 -3 5.72 -3 3 C-2.01 2.67 -1.02 2.34 0 2 C0 1.34 0 0.68 0 0 Z " fill="#3BC6E9" transform="translate(192,154)"/>
<path d="M0 0 C0.66 0.33 1.32 0.66 2 1 C0.62224508 4.35938442 -0.63206522 5.69945373 -3.84375 7.359375 C-4.59527344 7.75253906 -5.34679687 8.14570313 -6.12109375 8.55078125 C-6.90613281 8.94652344 -7.69117188 9.34226563 -8.5 9.75 C-9.28503906 10.16121094 -10.07007813 10.57242187 -10.87890625 10.99609375 C-16.69710341 14 -16.69710341 14 -19 14 C-19 13.34 -19 12.68 -19 12 C-17.39967863 11.15930585 -15.79458829 10.32768495 -14.1875 9.5 C-13.29417969 9.0359375 -12.40085938 8.571875 -11.48046875 8.09375 C-9 7 -9 7 -6 7 C-6 6.34 -6 5.68 -6 5 C-5.34 5 -4.68 5 -4 5 C-4 4.34 -4 3.68 -4 3 C-2 1.375 -2 1.375 0 0 Z " fill="#22C4F1" transform="translate(232,246)"/>
<path d="M0 0 C3.0483248 0.32660623 4.00507689 1.00522194 6.1875 3.25 C7.98276778 5.97385456 8.63365868 7.79451349 9 11 C4.70073737 9.40768051 2.64994267 6.60686641 0 3 C0 2.01 0 1.02 0 0 Z " fill="#0CACDE" transform="translate(120,185)"/>
<path d="M0 0 C0.99 0.66 1.98 1.32 3 2 C2.02541328 7.80165739 0.98746845 12.83982722 -2 18 C-3.51553092 14.02549507 -2.49888623 10.79518851 -1.5625 6.75 C-1.27503906 5.48671875 -0.98757812 4.2234375 -0.69140625 2.921875 C-0.46324219 1.95765625 -0.23507812 0.9934375 0 0 Z " fill="#284382" transform="translate(15,125)"/>
<path d="M0 0 C1.32 0.66 2.64 1.32 4 2 C3.154375 2.37125 2.30875 2.7425 1.4375 3.125 C-2.020866 5.01138145 -4.47754658 7.08044987 -7.2890625 9.79296875 C-9 11 -9 11 -13 11 C-13 9.35 -13 7.7 -13 6 C-11.515 6.99 -11.515 6.99 -10 8 C-8.70684939 7.04367001 -7.41553147 6.08486149 -6.125 5.125 C-5.04605469 4.32449219 -5.04605469 4.32449219 -3.9453125 3.5078125 C-1.91747368 2.00126838 -1.91747368 2.00126838 0 0 Z " fill="#1777B2" transform="translate(156,154)"/>
<path d="M0 0 C4.29 0 8.58 0 13 0 C13 0.33 13 0.66 13 1 C11.35 1.33 9.7 1.66 8 2 C8.66 2.66 9.32 3.32 10 4 C5.545 4.495 5.545 4.495 1 5 C0.67 3.35 0.34 1.7 0 0 Z " fill="#5D74A2" transform="translate(146,138)"/>
<path d="M0 0 C0.33 0.66 0.66 1.32 1 2 C3.52733235 2.65555119 3.52733235 2.65555119 6 3 C5.34 4.32 4.68 5.64 4 7 C1.36 6.67 -1.28 6.34 -4 6 C-2.68 4.02 -1.36 2.04 0 0 Z " fill="#E2F1EA" transform="translate(51,100)"/>
<path d="M0 0 C0 0.99 0 1.98 0 3 C-2.40545638 4.20272819 -3.94996953 4.10071472 -6.625 4.0625 C-7.85089844 4.04896484 -7.85089844 4.04896484 -9.1015625 4.03515625 C-10.04128906 4.01775391 -10.04128906 4.01775391 -11 4 C-10.67 3.01 -10.34 2.02 -10 1 C-3.84210526 -1.28070175 -3.84210526 -1.28070175 0 0 Z " fill="#0CB8E8" transform="translate(166,201)"/>
<path d="M0 0 C2.08379509 3.84700632 3.49686624 7.90054429 5 12 C4.01 12 3.02 12 2 12 C1.67 12.66 1.34 13.32 1 14 C-2 8.25 -2 8.25 -2 6 C-1.34 6 -0.68 6 0 6 C0 4.02 0 2.04 0 0 Z " fill="#29BAE5" transform="translate(118,173)"/>
<path d="M0 0 C0.33 0.99 0.66 1.98 1 3 C0.40832031 3.18175781 -0.18335938 3.36351563 -0.79296875 3.55078125 C-4.36372804 4.68666716 -7.54199414 5.71895095 -10.75 7.6875 C-13.37436834 9.21838153 -15.01169241 9.25614065 -18 9 C-14.59060935 6.13301241 -10.82972984 4.4916571 -6.75 2.8125 C-6.1003125 2.53986328 -5.450625 2.26722656 -4.78125 1.98632812 C-3.18958104 1.31923158 -1.59506897 0.65892555 0 0 Z " fill="#29CDF1" transform="translate(214,74)"/>
<path d="M0 0 C2.62901288 1.52206009 4.84365964 2.84365964 7 5 C8.03402815 5.8840137 9.07618185 6.75858501 10.125 7.625 C11.07375 8.40875 12.0225 9.1925 13 10 C12.67 10.66 12.34 11.32 12 12 C8.60140297 10.53033642 6.35036291 8.61962486 3.75 6 C3.04359375 5.29875 2.3371875 4.5975 1.609375 3.875 C0 2 0 2 0 0 Z " fill="#1C4891" transform="translate(66,242)"/>
<path d="M0 0 C0.66 0 1.32 0 2 0 C0.4307213 3.65880741 -1.8319796 6.25527628 -4.5 9.1875 C-5.2940625 10.06792969 -6.088125 10.94835937 -6.90625 11.85546875 C-9 14 -9 14 -11 15 C-9.57911395 11.82431967 -7.83591377 9.50601536 -5.5 6.9375 C-3.44184439 4.66567993 -1.70861829 2.56292743 0 0 Z " fill="#17B7E9" transform="translate(246,230)"/>
<g class="spinner-pulse">
<path d="M0 0 C0.33 1.32 0.66 2.64 1 4 C2.98 4 4.96 4 7 4 C7 4.99 7 5.98 7 7 C6.01 6.67 5.02 6.34 4 6 C4 7.98 4 9.96 4 12 C1.95780294 10.30820672 1.08206694 9.36272334 0.48828125 6.73828125 C0.43027344 5.93777344 0.37226563 5.13726562 0.3125 4.3125 C0.24675781 3.50425781 0.18101562 2.69601563 0.11328125 1.86328125 C0.07589844 1.24839844 0.03851563 0.63351563 0 0 Z " fill="#269ED0" transform="translate(142,162)"/>
<path d="M0 0 C0.66 0.99 1.32 1.98 2 3 C-0.97 5.31 -3.94 7.62 -7 10 C-7.66 9.67 -8.32 9.34 -9 9 C-6.03 6.03 -3.06 3.06 0 0 Z " fill="#D3E8ED" transform="translate(240,240)"/>
<path d="M0 0 C1.32 0 2.64 0 4 0 C3.625 1.9375 3.625 1.9375 3 4 C0.47524538 5.26237731 -1.31200466 5.09856404 -4.125 5.0625 C-5.03507813 5.05347656 -5.94515625 5.04445312 -6.8828125 5.03515625 C-7.58148438 5.02355469 -8.28015625 5.01195312 -9 5 C-9 4.67 -9 4.34 -9 4 C-7.88625 3.896875 -6.7725 3.79375 -5.625 3.6875 C-4.42875 3.460625 -3.2325 3.23375 -2 3 C-1.34 2.01 -0.68 1.02 0 0 Z " fill="#6C7FAC" transform="translate(157,188)"/>
<path d="M0 0 C0.75 1.625 0.75 1.625 1 4 C-0.9375 7.25 -0.9375 7.25 -3 10 C-3.66 9.67 -4.32 9.34 -5 9 C-2.25 2.25 -2.25 2.25 0 0 Z " fill="#073987" transform="translate(244,208)"/>
<path d="M0 0 C0.99 0.33 1.98 0.66 3 1 C2.57847656 1.55429688 2.15695313 2.10859375 1.72265625 2.6796875 C1.17480469 3.40414062 0.62695312 4.12859375 0.0625 4.875 C-0.48277344 5.59429687 -1.02804688 6.31359375 -1.58984375 7.0546875 C-3.03964624 8.94357079 -3.03964624 8.94357079 -4 11 C-4.66 11 -5.32 11 -6 11 C-4.54955729 6.89041233 -2.48889248 3.56741255 0 0 Z " fill="#0FADD7" transform="translate(57,103)"/>
</g>
<path d="M0 0 C1.32 0.99 2.64 1.98 4 3 C-0.95 3 -5.9 3 -11 3 C-11 2.67 -11 2.34 -11 2 C-7.2222918 0.59434113 -4.04313354 -0.53199126 0 0 Z " fill="#2BC7EE" transform="translate(156,203)"/>
<path d="M0 0 C0.33 0.66 0.66 1.32 1 2 C0.21625 2.9075 -0.5675 3.815 -1.375 4.75 C-3.30052496 7.05190236 -4.82205741 9.21577207 -6 12 C-6.99 11.67 -7.98 11.34 -9 11 C-6.03 7.37 -3.06 3.74 0 0 Z " fill="#20C2E5" transform="translate(66,91)"/>
<path d="M0 0 C2.31 0 4.62 0 7 0 C7.33 0.99 7.66 1.98 8 3 C5.03 3 2.06 3 -1 3 C-0.67 2.01 -0.34 1.02 0 0 Z " fill="#425A94" transform="translate(149,189)"/>
<path d="M0 0 C0.66 0.33 1.32 0.66 2 1 C-0.31 3.97 -2.62 6.94 -5 10 C-5.66 9.67 -6.32 9.34 -7 9 C-5.44499019 5.18315774 -2.96404505 2.80804268 0 0 Z " fill="#2E5590" transform="translate(79,98)"/>
<path d="M0 0 C0.66 0 1.32 0 2 0 C0.7508258 3.45925163 -0.67527795 6.14693203 -3 9 C-3.75 7.3125 -3.75 7.3125 -4 5 C-2.1875 2.25 -2.1875 2.25 0 0 Z " fill="#21437F" transform="translate(71,107)"/>
<path d="M0 0 C2.475 0.495 2.475 0.495 5 1 C5.33 2.32 5.66 3.64 6 5 C4.68 5.33 3.36 5.66 2 6 C0 3 0 3 0 0 Z " fill="#138BC7" transform="translate(201,97)"/>
<path d="M0 0 C0.66 0.33 1.32 0.66 2 1 C0.7391988 2.03319813 -0.53403258 3.05124379 -1.8125 4.0625 C-2.87404297 4.91521484 -2.87404297 4.91521484 -3.95703125 5.78515625 C-4.63121094 6.18605469 -5.30539063 6.58695312 -6 7 C-6.99 6.67 -7.98 6.34 -9 6 C-6.03 4.02 -3.06 2.04 0 0 Z " fill="#C9E1E7" transform="translate(85,72)"/>
<path d="M0 0 C0.99 0 1.98 0 3 0 C1.4169423 4.2742558 -1.50568404 6.26531794 -5 9 C-3.49901406 5.88256767 -1.97568178 2.84498177 0 0 Z " fill="#1E3C88" transform="translate(260,257)"/>
<path d="M0 0 C0.66 0 1.32 0 2 0 C2.6875 1.625 2.6875 1.625 3 4 C1.5625 7.25 1.5625 7.25 0 10 C-1.2380014 6.42355152 -0.74926071 3.66305234 0 0 Z " fill="#2F4986" transform="translate(13,133)"/>
<path d="M0 0 C0.94875 0.04125 1.8975 0.0825 2.875 0.125 C1.555 1.445 0.235 2.765 -1.125 4.125 C-2.445 3.465 -3.765 2.805 -5.125 2.125 C-3.125 0.125 -3.125 0.125 0 0 Z " fill="#1B307B" transform="translate(58.125,89.875)"/>
<path d="M0 0 C0.99 0.33 1.98 0.66 3 1 C0.83312509 3.27521866 -1.45620509 5.15794162 -4 7 C-4.66 6.67 -5.32 6.34 -6 6 C-4.02 4.02 -2.04 2.04 0 0 Z " fill="#CED7E3" transform="translate(70,63)"/>
<path d="M0 0 C0.99 0.33 1.98 0.66 3 1 C2.01 2.98 1.02 4.96 0 7 C-0.66 7 -1.32 7 -2 7 C-1.34 4.69 -0.68 2.38 0 0 Z " fill="#2AA8DB" transform="translate(255,214)"/>
<path d="M0 0 C0.33 0 0.66 0 1 0 C1.06058594 0.61488281 1.12117188 1.22976562 1.18359375 1.86328125 C1.26738281 2.67152344 1.35117187 3.47976562 1.4375 4.3125 C1.51871094 5.11300781 1.59992188 5.91351563 1.68359375 6.73828125 C1.95265693 9.16087179 1.95265693 9.16087179 3 12 C2.01 12.33 1.02 12.66 0 13 C0 8.71 0 4.42 0 0 Z " fill="#1B9FD1" transform="translate(284,153)"/>
<path d="M0 0 C3.77545388 1.09068668 6.47043472 1.9083091 9 5 C8.67 5.66 8.34 6.32 8 7 C6.66382648 6.02471263 5.3311249 5.04466681 4 4.0625 C3.2575 3.51722656 2.515 2.97195313 1.75 2.41015625 C1.1725 1.94480469 0.595 1.47945313 0 1 C0 0.67 0 0.34 0 0 Z " fill="#396CAF" transform="translate(61,274)"/>
</svg>
